<svg id="fi-rr-shopping-cart-add" xmlns="http://www.w3.org/2000/svg" width="16" height="16" viewBox="0 0 16 16">
  <circle id="Elipse_4" data-name="Elipse 4" cx="1.333" cy="1.333" r="1.333" transform="translate(3.333 13.333)" fill="#fff"/>
  <circle id="Elipse_5" data-name="Elipse 5" cx="1.333" cy="1.333" r="1.333" transform="translate(10 13.333)" fill="#fff"/>
  <path id="Caminho_2" data-name="Caminho 2" d="M20.667,2H19.333V.667A.667.667,0,1,0,18,.667V2H16.667a.667.667,0,1,0,0,1.333H18V4.667a.667.667,0,1,0,1.333,0V3.333h1.333a.667.667,0,0,0,0-1.333Z" transform="translate(-5.333)" fill="#fff"/>
  <path id="Caminho_3" data-name="Caminho 3" d="M14.514,6.484a.663.663,0,0,0-.775.537,2,2,0,0,1-1.968,1.645H3.612L2.985,3.333H8.667A.667.667,0,0,0,8.667,2H2.828L2.8,1.765A2,2,0,0,0,.815,0H.667a.667.667,0,0,0,0,1.333H.815a.667.667,0,0,1,.662.589l.917,7.8A3.333,3.333,0,0,0,5.7,12.667h6.962a.667.667,0,0,0,0-1.333H5.7A2,2,0,0,1,3.819,10h7.953a3.333,3.333,0,0,0,3.281-2.742A.667.667,0,0,0,14.514,6.484Z" fill="#fff"/>
</svg>
