<svg xmlns="http://www.w3.org/2000/svg" width="15.081" height="18" viewBox="0 0 15.081 18">
  <g id="fi-rr-marker" transform="translate(-1.945 0.002)">
    <path id="Caminho_8" data-name="Caminho 8" d="M11,6a3,3,0,1,0,3,3A3,3,0,0,0,11,6Zm0,4.5A1.5,1.5,0,1,1,12.5,9,1.5,1.5,0,0,1,11,10.5Z" transform="translate(-1.514 -1.501)" fill="#fff"/>
    <path id="Caminho_9" data-name="Caminho 9" d="M9.486,18a3.953,3.953,0,0,1-3.233-1.65C3.395,12.406,1.945,9.442,1.945,7.539a7.541,7.541,0,0,1,15.081,0c0,1.9-1.45,4.867-4.308,8.809A3.953,3.953,0,0,1,9.486,18Zm0-16.363a5.912,5.912,0,0,0-5.9,5.9c0,1.507,1.42,4.295,4,7.849a2.359,2.359,0,0,0,3.817,0c2.577-3.554,4-6.341,4-7.849a5.912,5.912,0,0,0-5.9-5.9Z" fill="#fff"/>
  </g>
</svg>
