<svg xmlns="http://www.w3.org/2000/svg" xmlns:xlink="http://www.w3.org/1999/xlink" width="452.913" height="161.927" viewBox="0 0 452.913 161.927">
  <defs>
    <clipPath id="clip-path">
      <rect id="Retângulo_18" data-name="Retângulo 18" width="123.492" height="123.492"/>
    </clipPath>
  </defs>
  <g id="Grupo_56" data-name="Grupo 56" transform="translate(-10.087 -15.087)">
    <g id="favicon" transform="matrix(-0.391, -0.921, 0.921, -0.391, 58.339, 177.014)" clip-path="url(#clip-path)">
      <g id="Group_1" data-name="Group 1" transform="translate(1.761 0.352)">
        <path id="Subtraction_3" data-name="Subtraction 3" d="M17.491,83.841h0c-.252,0-.5,0-.75-.007a10.344,10.344,0,0,1-7.47-3.626,26.982,26.982,0,0,1-5.257-9.33A65.768,65.768,0,0,1,.935,57.718,104.287,104.287,0,0,1,.007,42.6a106.808,106.808,0,0,1,1.248-15.6A69.6,69.6,0,0,1,4.7,13.355a28.753,28.753,0,0,1,5.6-9.679A10.553,10.553,0,0,1,18.033,0H18.2A42.145,42.145,0,0,1,52.262,18.277a26.808,26.808,0,0,0-2.188,50.2A42.126,42.126,0,0,1,17.49,83.842Z" transform="translate(0 17.296)" fill="#623fd9"/>
        <path id="Subtraction_1" data-name="Subtraction 1" d="M33.833,83.841h-.167A42.137,42.137,0,0,1,1.748,68.418,26.944,26.944,0,0,0,19.037,43.357,26.976,26.976,0,0,0,0,17.7,42.125,42.125,0,0,1,34.374,0c.254,0,.5,0,.754.007A10.343,10.343,0,0,1,42.6,3.632a26.974,26.974,0,0,1,5.257,9.326A65.748,65.748,0,0,1,50.93,26.114a104.268,104.268,0,0,1,.929,15.113,106.823,106.823,0,0,1-1.247,15.6,69.625,69.625,0,0,1-3.444,13.655,28.746,28.746,0,0,1-5.6,9.683A10.549,10.549,0,0,1,33.833,83.841Z" transform="translate(68.258 17.722)" fill="#24f593"/>
        <path id="Subtraction_2" data-name="Subtraction 2" d="M66.928,51.282A26.808,26.808,0,0,0,17.1,51.1a42.343,42.343,0,0,1-7.166-6.688A42.058,42.058,0,0,1,4.5,36.234,41.573,41.573,0,0,1,.007,16.645,10.2,10.2,0,0,1,3.54,9.315a26.474,26.474,0,0,1,9.11-5.2,64.829,64.829,0,0,1,12.9-3.1A104.37,104.37,0,0,1,40.432,0,112.333,112.333,0,0,1,52.814.677,88.886,88.886,0,0,1,64.355,2.7a52.96,52.96,0,0,1,9.722,3.343,24.032,24.032,0,0,1,6.929,4.651,10.186,10.186,0,0,1,3.253,7.426,41.573,41.573,0,0,1-4.891,18.9,42.036,42.036,0,0,1-5.419,7.847,42.357,42.357,0,0,1-7.021,6.413Z" transform="translate(18.521 0)" fill="#2ddbee"/>
        <path id="Subtraction_4" data-name="Subtraction 4" d="M41.923,51.468a105.579,105.579,0,0,1-15.393-1.091A67.513,67.513,0,0,1,13.1,47.1C4.53,43.934,0,39.407,0,34.016A42.138,42.138,0,0,1,17.181,0a26.7,26.7,0,0,0,24.83,16.7A26.722,26.722,0,0,0,66.8.1,42.136,42.136,0,0,1,83.845,34.016c0,5.391-4.53,9.917-13.1,13.09a67.514,67.514,0,0,1-13.429,3.272,105.576,105.576,0,0,1-15.393,1.09Z" transform="translate(18.489 71.175)" fill="#f524b6"/>
      </g>
    </g>
    <text id="APP_Gamer" data-name="APP Gamer" transform="translate(166 118)" fill="#241654" font-size="56" font-family="SegoeUI-Bold, Segoe UI" font-weight="700" letter-spacing="-0.06em"><tspan x="0" y="0">APP GAMER</tspan></text>
  </g>
</svg>
